Coordinates
version=1
nRows=9
nColumns=24
inDegrees=yes

Units are S.I. units (second, meters, Newtons, ...)
Angles are in degrees.

endheader
time	pelvis_tilt	pelvis_list	pelvis_rotation	pelvis_tx	pelvis_ty	pelvis_tz	hip_flexion_r	hip_adduction_r	hip_rotation_r	knee_angle_r	ankle_angle_r	subtalar_angle_r	mtp_angle_r	hip_flexion_l	hip_adduction_l	hip_rotation_l	knee_angle_l	ankle_angle_l	subtalar_angle_l	mtp_angle_l	lumbar_extension	lumbar_bending	lumbar_rotation
      1.26666667	      0.25518370	     -6.46023041	     -2.68537138	     -0.01169749	      1.05313229	      0.32501422	    -17.98651656	     11.48646226	      0.36424592	     -5.15518420	      2.94965188	    -10.84965089	      2.83595505	     21.81518397	     -3.39327322	     -6.66069562	      5.13189973	      5.68281803	      5.51666185	      0.16013648	      1.90368116	     11.23576768	      3.72187434
      1.27083333	      0.21204034	     -6.38814085	     -2.68918622	     -0.00579428	      1.05285334	      0.32498377	    -18.07577669	     11.37260524	      0.43285094	     -5.51312724	      2.91610565	    -10.84845211	      2.83759207	     21.77886980	     -3.30004438	     -6.56658447	      4.77121509	      5.65097655	      5.50666749	      0.15947171	      1.92314112	     11.22653473	      3.72591159
      1.27500000	      0.29936425	     -6.31254131	     -2.72874261	      0.00005012	      1.05282557	      0.32490370	    -18.25878698	     11.22693826	      0.31670621	     -5.93672995	      2.39207259	    -10.67418837	      2.89358018	     21.51335052	     -3.21591957	     -6.05052752	      4.58061450	      5.18307465	      4.63656496	      0.12320368	      1.89374420	     10.93574480	      3.82360747
      1.27916667	      0.44040312	     -6.27107745	     -2.68689768	      0.00576812	      1.05282137	      0.32461105	    -18.47845627	     11.12911102	      0.14408614	     -6.39930363	      2.47118352	    -10.66546126	      2.97861891	     21.24285985	     -3.12361833	     -5.64578761	      4.29530751	      4.93154330	      3.81273750	      0.09273967	      1.82849907	     11.10812321	      3.82836393
      1.28333333	      0.41400348	     -6.21299622	     -2.73532221	      0.01169270	      1.05266975	      0.32464765	    -18.53928101	     11.01482971	      0.22453702	     -6.83989922	      2.17775325	    -10.50832844	      3.01631610	     21.11682753	     -3.07089259	     -5.37499334	      4.02727525	      4.71904018	      3.65069313	      0.08283370	      1.83044896	     10.80822158	      3.87990627
      1.28750000	      0.48277408	     -6.08548214	     -2.79465094	      0.01782749	      1.05272264	      0.32452056	    -18.67490832	     10.79840690	      0.05349294	     -7.32940967	      1.84377903	    -10.40428888	      3.07411378	     20.84863203	     -2.92186466	     -5.24196079	      3.82606673	      4.31818369	      3.24268166	      0.06956284	      1.90675252	     10.75749268	      3.91345587
      1.29166667	      0.49454660	     -6.02332644	     -2.83062109	      0.02379557	      1.05267877	      0.32444475	    -18.73599461	     10.67055550	      0.04055975	     -7.83923767	      1.56328136	    -10.24633124	      3.14463242	     20.64891935	     -2.85009798	     -4.92581033	      3.62316043	      3.90966971	      2.85297000	      0.06327829	      1.85260615	     10.52394254	      3.96961900
      1.29583333	      0.53004205	     -5.99172229	     -2.87472373	      0.02969220	      1.05268579	      0.32440598	    -18.79413498	     10.57521359	      0.02169151	     -8.41665722	      1.46557745	    -10.24329792	      3.15863649	     20.44992552	     -2.81175772	     -4.83897859	      3.37007720	      3.80109196	      2.78596663	      0.06322527	      1.95833424	     10.49862569	      3.98437645
      1.30000000	      0.56241816	     -5.79112170	     -2.96700767	      0.03614674	      1.05281562	      0.32427572	    -18.85503208	     10.26129671	     -0.18349870	     -8.96283666	      0.91858274	    -10.05117388	      3.22621465	     20.14529349	     -2.58592254	     -4.76164005	      3.28819814	      3.08818504	      2.31873407	      0.05971563	      1.98294617	     10.33232885	      4.04552101
